<?xml version="1.0" encoding="UTF-8" standalone="no"?>
<!DOCTYPE svg PUBLIC "-//W3C//DTD SVG 1.1//EN" "http://www.w3.org/Graphics/SVG/1.1/DTD/svg11.dtd">
<svg width="100%" height="100%" viewBox="0 0 1275 572" version="1.1" xmlns="http://www.w3.org/2000/svg" xmlns:xlink="http://www.w3.org/1999/xlink" xml:space="preserve" xmlns:serif="http://www.serif.com/" style="fill-rule:evenodd;clip-rule:evenodd;stroke-linejoin:round;stroke-miterlimit:2;">
    <g transform="matrix(1,0,0,1,-235.317199,-223.223474)">
        <path d="M316.03,276.983L315.298,278.155L262.27,278.155L260.805,279.181L260.805,420.831C260.805,421.417 260.415,421.954 259.634,422.442L239.272,423.175C236.636,423.175 235.317,422.345 235.317,420.684L235.317,226.007L237.807,223.663L292.886,223.663L292.886,243.585L260.659,243.585L260.805,257.647L315.298,257.647L316.03,258.819L316.03,276.983Z" style="fill:rgb(76,76,76);fill-rule:nonzero;"/>
        <path d="M365.835,422.589L342.983,422.589C341.421,422.589 340.591,422.198 340.493,421.417L340.493,227.325C340.493,225.372 345.18,224.395 354.555,224.395C361.001,224.395 364.761,225.372 365.835,227.325L365.835,422.589Z" style="fill:rgb(76,76,76);fill-rule:nonzero;"/>
        <path d="M505.434,236.993C505.434,241.095 505.19,243.682 504.702,244.757C503.823,246.71 501.626,247.686 498.11,247.686L479.507,247.54L461.05,247.393C459.878,247.393 459.292,248.565 459.292,250.909L459.292,418.487C459.292,420.929 458.169,422.442 455.923,423.028L449.77,423.175L442.593,423.175C440.542,422.882 438.686,421.71 437.026,419.659L437.173,281.524C437.173,259.845 436.733,248.565 435.854,247.686L400.259,247.833C398.305,247.833 397.329,244.122 397.329,236.7C397.329,228.009 398.745,223.663 401.577,223.663L498.989,223.663C503.286,223.663 505.434,228.106 505.434,236.993Z" style="fill:rgb(76,76,76);fill-rule:nonzero;"/>
        <path d="M652.065,402.52L652.065,408.819L651.919,416.729C651.919,420.831 651.04,422.882 649.282,422.882L570.62,422.735L547.329,422.735L529.604,422.882L527.7,422.296C526.528,422.003 525.942,421.319 525.942,420.245L526.235,418.927C544.204,384.552 559.634,354.669 572.524,329.278C584.341,306.036 593.569,287.432 600.21,273.468C606.362,260.479 609.438,253.155 609.438,251.495C609.438,249.932 608.022,249.151 605.19,249.151L571.352,249.591L537.661,249.884C536.196,249.884 535.122,249.713 534.438,249.371C533.755,249.029 533.364,248.077 533.266,246.514L533.413,236.554L533.413,226.739C533.413,224.688 534.634,223.663 537.075,223.663L645.766,223.663C648.208,223.663 649.429,224.639 649.429,226.593C649.429,227.179 649.136,228.009 648.55,229.083C638.393,251.739 630.971,267.608 626.284,276.69L565.2,397.833C565.395,398.907 566.909,399.444 569.741,399.444L648.843,399.444C650.991,399.444 652.065,400.47 652.065,402.52Z" style="fill:rgb(76,76,76);fill-rule:nonzero;"/>
        <path d="M781.411,254.132C781.411,270.733 772.72,284.503 755.337,295.44C741.177,304.425 724.819,309.796 706.264,311.554L706.411,419.806C706.411,421.856 704.995,422.882 702.163,422.882L685.317,422.882C682.485,422.882 681.069,420.831 681.069,416.729L680.776,229.962C680.776,225.47 682.485,223.223 685.903,223.223L719.302,223.516L752.7,223.663C761.489,223.663 768.471,226.544 773.647,232.306C778.823,238.067 781.411,245.343 781.411,254.132ZM757.241,256.475C757.241,248.956 746.548,245.196 725.161,245.196L706.264,245.343L705.971,250.763L705.825,256.475L706.264,286.944L707.729,286.944C716.518,286.944 726.577,284.112 737.905,278.448C750.796,271.807 757.241,264.483 757.241,256.475Z" style="fill:rgb(76,76,76);fill-rule:nonzero;"/>
        <path d="M906.069,419.659L904.165,422.589L882.925,422.735L879.848,419.806L858.315,320.489L822.866,320.489L799.575,422.589L797.817,423.321L778.921,423.321L776.87,419.806L824.917,223.37L851.723,223.37L854.36,226.007L906.069,419.659ZM849.233,280.792L842.055,247.686L837.368,247.686L829.604,280.792L849.233,280.792ZM854.36,304.229L853.188,296.466L827.846,296.466L826.235,304.229L854.36,304.229Z" style="fill:rgb(76,76,76);fill-rule:nonzero;"/>
        <path d="M1040.835,236.993C1040.835,241.095 1040.591,243.682 1040.102,244.757C1039.223,246.71 1037.026,247.686 1033.511,247.686L1014.907,247.54L996.45,247.393C995.278,247.393 994.692,248.565 994.692,250.909L994.692,418.487C994.692,420.929 993.569,422.442 991.323,423.028L985.171,423.175L977.993,423.175C975.942,422.882 974.087,421.71 972.427,419.659L972.573,281.524C972.573,259.845 972.134,248.565 971.255,247.686L935.659,247.833C933.706,247.833 932.729,244.122 932.729,236.7C932.729,228.009 934.145,223.663 936.977,223.663L1034.389,223.663C1038.686,223.663 1040.835,228.106 1040.835,236.993Z" style="fill:rgb(76,76,76);fill-rule:nonzero;"/>
        <path d="M1179.995,420.391C1179.702,421.759 1178.677,422.686 1176.919,423.175C1176.723,423.272 1176.04,423.321 1174.868,423.321C1173.696,423.321 1172.768,423.37 1172.085,423.468L1167.544,423.028L1163.735,423.321L1160.073,423.761C1155.581,423.761 1153.335,421.514 1153.335,417.022C1153.335,410.382 1143.667,373.126 1124.331,305.255C1116.03,308.282 1105.874,310.382 1093.862,311.554L1094.009,419.806C1094.009,421.856 1092.593,422.882 1089.761,422.882L1072.915,422.882C1070.083,422.882 1068.667,420.831 1068.667,416.729L1068.374,229.962C1068.374,225.47 1070.083,223.223 1073.501,223.223L1106.899,223.516L1140.298,223.663C1148.891,223.663 1155.923,226.593 1161.391,232.452C1163.93,235.284 1165.835,238.458 1167.104,241.973C1168.374,245.489 1169.009,249.542 1169.009,254.132C1169.009,270.245 1160.317,283.477 1142.934,293.829C1147.329,311.016 1153.384,332.159 1161.098,357.257L1179.995,420.391ZM1144.839,256.475C1144.839,248.956 1134.145,245.196 1112.759,245.196L1093.862,245.343L1093.569,250.909L1093.423,256.475L1093.862,286.944L1095.327,286.944C1104.311,286.944 1114.419,284.112 1125.649,278.448C1138.442,272.003 1144.839,264.679 1144.839,256.475Z" style="fill:rgb(76,76,76);fill-rule:nonzero;"/>
        <path d="M1239.321,422.589L1216.47,422.589C1214.907,422.589 1214.077,422.198 1213.979,421.417L1213.979,227.325C1213.979,225.372 1218.667,224.395 1228.042,224.395C1234.487,224.395 1238.247,225.372 1239.321,227.325L1239.321,422.589Z" style="fill:rgb(76,76,76);fill-rule:nonzero;"/>
        <path d="M1370.278,420.684L1367.934,422.735C1361.782,423.321 1357.29,423.614 1354.458,423.614C1329.848,423.614 1309.341,412.921 1292.934,391.534C1277.895,371.807 1270.376,349.249 1270.376,323.858C1270.376,298.858 1276.919,276.593 1290.005,257.061C1304.848,234.796 1324.087,223.663 1347.72,223.663C1352.602,223.663 1358.901,224.444 1366.616,226.007L1367.934,226.886L1367.934,246.807L1366.616,248.126L1356.509,247.686L1345.962,247.1C1328.774,247.1 1315.688,255.108 1306.704,271.124C1299.477,284.21 1295.864,300.079 1295.864,318.731C1295.864,340.606 1301.284,359.307 1312.124,374.835C1324.233,391.925 1340.542,400.47 1361.05,400.47L1363.393,400.47C1363.784,400.47 1364.419,400.421 1365.298,400.323C1366.177,400.225 1366.86,400.177 1367.348,400.177C1367.837,400.177 1368.813,400.763 1370.278,401.934L1370.278,420.684Z" style="fill:rgb(76,76,76);fill-rule:nonzero;"/>
        <path d="M1507.095,419.366C1507.095,420.245 1506.753,421.173 1506.069,422.149C1504.507,422.931 1501.821,423.321 1498.013,423.321C1494.595,423.321 1489.614,422.931 1483.071,422.149C1482.095,421.368 1481.46,420.343 1481.167,419.073C1479.995,412.335 1474.282,390.655 1464.028,354.034L1456.118,324.737C1453.091,313.409 1449.868,303.888 1446.45,296.173C1444.009,300.372 1436.05,310.479 1422.573,326.495L1422.573,422.882C1420.327,422.882 1416.177,422.979 1410.122,423.175C1404.067,423.37 1400.356,423.468 1398.989,423.468L1397.671,422.882L1397.378,419.073L1397.085,227.179C1397.085,225.323 1398.696,224.395 1401.919,224.395L1419.497,224.395C1421.548,224.395 1422.573,225.323 1422.573,227.179L1422.573,293.097C1428.432,285.382 1435.366,276.593 1443.374,266.729C1447.475,261.847 1455.532,247.491 1467.544,223.663L1490.835,223.663C1491.518,224.347 1492.153,225.128 1492.739,226.007C1487.759,235.968 1478.091,253.057 1463.735,277.276C1466.079,286.065 1468.471,294.757 1470.913,303.35C1471.889,306.866 1473.965,313.946 1477.138,324.591C1480.312,335.235 1482.583,342.804 1483.95,347.296C1486.977,357.257 1490.005,367.071 1493.032,376.739C1496.841,388.848 1500.698,400.909 1504.604,412.921C1505.288,414.874 1506.02,416.729 1506.802,418.487C1506.899,418.682 1506.997,418.975 1507.095,419.366Z" style="fill:rgb(76,76,76);fill-rule:nonzero;"/>
        <path d="M535.317,683.331C535.317,688.116 529.897,691.681 519.057,694.024L497.378,697.1C502.749,710.87 505.434,720.44 505.434,725.811C505.434,747.296 497.329,764.386 481.118,777.081C466.372,788.604 448.061,794.366 426.186,794.366C402.456,794.366 382.876,787.921 367.446,775.03C351.138,761.358 342.983,742.804 342.983,719.366C342.983,700.811 347.72,684.112 357.192,669.268C367.837,652.472 381.509,644.073 398.208,644.073C403.384,644.073 408.511,644.854 413.589,646.417C413.589,644.464 412.563,641.485 410.513,637.481C408.462,633.477 405.434,628.497 401.43,622.54C393.716,610.626 389.858,603.302 389.858,600.567L392.934,595.44C396.157,594.952 400.185,594.61 405.019,594.415C409.853,594.22 414.614,594.122 419.302,594.122C423.11,594.122 426.968,594.146 430.874,594.195C434.78,594.244 438.735,594.268 442.739,594.268L447.573,594.561L451.382,607.745C451.382,610.675 450.649,613.897 449.184,617.413L422.524,616.241C423.501,619.171 427.7,626.348 435.122,637.774C441.47,647.833 444.643,654.718 444.643,658.429C444.643,661.261 442.495,664.312 438.198,667.584C433.901,670.855 430.288,672.491 427.358,672.491C425.112,672.491 421.938,671.563 417.837,669.708C413.735,667.852 410.659,666.925 408.608,666.925C395.62,666.925 384.927,672.345 376.528,683.184C369.009,693.048 365.249,704.571 365.249,717.755C365.249,735.919 371.889,749.981 385.171,759.942C397.085,768.927 412.417,773.419 431.167,773.419C446.499,773.419 458.828,769.024 468.154,760.235C477.48,751.446 482.143,739.337 482.143,723.907C482.143,715.509 479.189,708.306 473.281,702.301C467.373,696.295 460.268,693.292 451.968,693.292C444.643,693.292 437.954,695.05 431.899,698.565C425.063,702.764 421.645,708.38 421.645,715.411C421.645,720.684 423.501,724.884 427.212,728.009C430.63,730.841 434.878,732.257 439.956,732.257L443.179,732.257C444.253,731.964 444.985,731.768 445.376,731.671L449.331,738.263C449.331,742.364 448.183,746.051 445.888,749.322C443.594,752.594 440.395,754.229 436.294,754.229C428.091,754.229 420.107,749.615 412.344,740.387C404.58,731.158 400.698,722.296 400.698,713.8C400.698,685.772 421.108,671.759 461.929,671.759C466.811,671.759 473.989,672.54 483.462,674.102C492.934,675.665 499.575,676.446 503.384,676.446C510.024,676.446 517.837,672.931 526.821,665.899C532.485,670.098 535.317,675.909 535.317,683.331Z" style="fill:rgb(76,76,76);fill-rule:nonzero;"/>
        <path d="M732.046,791.876L729.702,793.927C724.136,794.513 719.643,794.806 716.225,794.806C691.616,794.806 671.108,784.112 654.702,762.725C639.663,742.999 632.143,720.44 632.143,695.05C632.143,670.05 638.686,647.784 651.772,628.253C666.616,605.987 685.854,594.854 709.487,594.854C721.206,594.854 727.944,595.929 729.702,598.077L729.702,617.999L728.384,619.317L718.13,618.731L707.729,618.292C690.737,618.292 677.7,626.348 668.618,642.462C661.294,655.352 657.632,671.173 657.632,689.923C657.632,711.798 663.052,730.499 673.891,746.026C686.001,763.116 702.358,771.661 722.964,771.661L727.212,771.661C728.091,771.466 728.725,771.368 729.116,771.368L732.046,773.126L732.046,791.876Z" style="fill:rgb(76,76,76);fill-rule:nonzero;"/>
        <path d="M873.11,661.358C873.11,677.764 867.055,691.778 854.946,703.399C842.837,715.02 828.53,720.831 812.026,720.831C797.085,720.831 783.877,714.947 772.402,703.18C760.928,691.412 755.19,677.911 755.19,662.677C755.19,644.024 760.073,628.448 769.839,615.948C780.483,602.374 794.888,595.587 813.052,595.587L818.179,595.587C834.585,595.587 848.11,602.569 858.755,616.534C868.325,629.327 873.11,644.268 873.11,661.358ZM829.311,744.415C829.311,746.27 829.287,747.882 829.238,749.249C829.189,750.616 829.018,751.886 828.725,753.057C827.846,755.987 825.845,757.452 822.72,757.452L809.243,757.452C805.825,757.452 803.677,755.938 802.798,752.911C802.505,751.837 802.358,748.761 802.358,743.682C802.358,734.796 804.653,730.548 809.243,730.938L814.736,730.938C816.64,730.938 818.618,730.889 820.669,730.792L822.72,730.792C827.114,730.792 829.311,735.333 829.311,744.415ZM829.751,780.45C829.751,782.306 829.726,783.917 829.678,785.284C829.629,786.651 829.458,787.921 829.165,789.093C828.286,792.022 826.235,793.487 823.013,793.487L809.536,793.487C806.216,793.487 804.067,791.973 803.091,788.946L802.798,779.718C802.798,770.831 805.044,766.583 809.536,766.973L815.029,766.973C816.933,766.973 818.96,766.925 821.108,766.827L823.013,766.827C827.505,766.827 829.751,771.368 829.751,780.45ZM850.112,655.059C850.112,644.415 847.182,635.479 841.323,628.253C834.975,620.538 826.528,616.681 815.981,616.681C803.872,616.681 794.546,620.88 788.003,629.278C782.143,636.895 779.214,647.003 779.214,659.6C779.214,669.268 782.558,677.862 789.248,685.382C795.937,692.901 804.067,696.661 813.638,696.661C824.477,696.661 833.413,692.364 840.444,683.77C846.889,675.86 850.112,666.29 850.112,655.059Z" style="fill:rgb(76,76,76);fill-rule:nonzero;"/>
        <path d="M996.889,781.915L996.889,783.526C996.889,787.237 996.743,789.532 996.45,790.411C995.864,792.657 994.595,793.927 992.641,794.22L905.776,794.22L902.846,792.755C902.651,792.169 902.431,791.363 902.187,790.338C901.943,789.312 901.772,788.458 901.675,787.774L901.821,599.542C901.821,597.198 902.065,595.831 902.554,595.44C903.335,595.05 905.141,594.854 907.973,594.854L923.501,594.854C925.161,594.854 926.235,595.221 926.723,595.953C927.212,596.685 927.456,598.077 927.456,600.128L927.456,768.585C927.261,768.878 927.114,769.122 927.016,769.317C927.505,769.708 927.798,770.05 927.895,770.343C927.993,770.636 928.164,770.88 928.408,771.075C928.652,771.27 928.823,771.368 928.921,771.368L992.641,771.368C995.473,771.368 996.889,774.884 996.889,781.915Z" style="fill:rgb(76,76,76);fill-rule:nonzero;"/>
        <path d="M1094.888,649.2L1043.911,649.2L1043.618,649.932L1044.057,773.126L1090.639,773.126C1091.714,775.177 1092.251,778.692 1092.251,783.673C1092.251,788.458 1091.372,791.876 1089.614,793.927L1022.524,793.927C1021.255,793.927 1020.62,793.097 1020.62,791.436L1020.62,596.319C1021.499,595.44 1022.622,595.001 1023.989,595.001L1073.208,595.001L1073.208,614.337L1044.057,614.337L1044.057,628.546L1094.155,628.253L1094.888,628.546L1094.888,649.2Z" style="fill:rgb(76,76,76);fill-rule:nonzero;"/>
        <path d="M1227.456,608.184C1227.456,612.286 1227.212,614.874 1226.723,615.948C1225.845,617.901 1223.647,618.878 1220.132,618.878L1201.528,618.731L1183.071,618.585C1181.899,618.585 1181.313,619.757 1181.313,622.1L1181.313,789.679C1181.313,792.12 1180.19,793.634 1177.944,794.22L1171.792,794.366L1164.614,794.366C1162.563,794.073 1160.708,792.901 1159.048,790.85L1159.194,652.716C1159.194,631.036 1158.755,619.757 1157.876,618.878L1122.28,619.024C1120.327,619.024 1119.35,615.313 1119.35,607.891C1119.35,599.2 1120.766,594.854 1123.598,594.854L1221.011,594.854C1225.307,594.854 1227.456,599.298 1227.456,608.184Z" style="fill:rgb(76,76,76);fill-rule:nonzero;"/>
        <path d="M1359.145,608.184C1359.145,612.286 1358.901,614.874 1358.413,615.948C1357.534,617.901 1355.337,618.878 1351.821,618.878L1333.218,618.731L1314.761,618.585C1313.589,618.585 1313.003,619.757 1313.003,622.1L1313.003,789.679C1313.003,792.12 1311.88,793.634 1309.634,794.22L1303.481,794.366L1296.304,794.366C1294.253,794.073 1292.397,792.901 1290.737,790.85L1290.884,652.716C1290.884,631.036 1290.444,619.757 1289.565,618.878L1253.97,619.024C1252.016,619.024 1251.04,615.313 1251.04,607.891C1251.04,599.2 1252.456,594.854 1255.288,594.854L1352.7,594.854C1356.997,594.854 1359.145,599.298 1359.145,608.184Z" style="fill:rgb(76,76,76);fill-rule:nonzero;"/>
        <path d="M1510.024,790.85L1508.12,793.78L1486.88,793.927L1483.804,790.997L1462.27,691.681L1426.821,691.681L1403.53,793.78L1401.772,794.513L1382.876,794.513L1380.825,790.997L1428.872,594.561L1455.679,594.561L1458.315,597.198L1510.024,790.85ZM1453.188,651.983L1446.011,618.878L1441.323,618.878L1433.559,651.983L1453.188,651.983ZM1458.315,675.421L1457.143,667.657L1431.802,667.657L1430.19,675.421L1458.315,675.421Z" style="fill:rgb(76,76,76);fill-rule:nonzero;"/>
    </g>
</svg>
