<?xml version="1.0" encoding="UTF-8" standalone="no"?>
<!DOCTYPE svg PUBLIC "-//W3C//DTD SVG 1.1//EN" "http://www.w3.org/Graphics/SVG/1.1/DTD/svg11.dtd">
<svg width="100%" height="100%" viewBox="0 0 48 48" version="1.1" xmlns="http://www.w3.org/2000/svg" xmlns:xlink="http://www.w3.org/1999/xlink" xml:space="preserve" xmlns:serif="http://www.serif.com/" style="fill-rule:evenodd;clip-rule:evenodd;stroke-linejoin:round;stroke-miterlimit:2;">
    <g transform="matrix(0.036448,0.034227,-0.034227,0.036448,-10.959149,25.513902)">
        <path d="M225.691,-245.421C165.691,-245.421 101.667,-281.833 61,-325.5C20.333,-369.167 0,-421.333 0,-482C0,-542 20.5,-593.333 61.5,-636C102.5,-678.667 152.667,-700 212,-700C236,-700 259.167,-696 281.5,-688C303.833,-680 323.667,-667.667 341,-651L434,-561L392,-519L303,-606C291,-618 277.167,-626.667 261.5,-632C245.833,-637.333 229.333,-640 212,-640C169.333,-640 133.333,-624.5 104,-593.5C74.667,-562.5 60,-525.333 60,-482C60,-438 74.5,-400 103.5,-368C132.5,-336 154.976,-334.579 198.309,-334.579C214.976,-334.579 231.142,-337.246 246.809,-342.579C262.476,-347.913 276.642,-356.246 289.309,-367.579L605.309,-665.579C622.642,-682.246 642.476,-694.579 664.809,-702.579C687.142,-710.579 709.976,-714.579 733.309,-714.579C793.309,-714.579 857.5,-678.667 898.5,-636C939.5,-593.333 960,-542 960,-482C960,-421.333 939.5,-369.167 898.5,-325.5C857.5,-281.833 807,-260 747,-260C723.667,-260 700.667,-263.833 678,-271.5C655.333,-279.167 635.667,-291.333 619,-308L528,-398L570,-440L657,-353C668.333,-341.667 682,-333.333 698,-328C714,-322.667 730.333,-320 747,-320C790.333,-320 826.667,-336 856,-368C885.333,-400 900,-438 900,-482C900,-525.333 885.167,-562.5 855.5,-593.5C825.833,-624.5 803.358,-625.421 760.691,-625.421C744.024,-625.421 727.858,-622.421 712.191,-616.421C696.524,-610.421 682.691,-601.754 670.691,-590.421L354.691,-292.421C337.358,-276.421 317.358,-264.587 294.691,-256.921C272.024,-249.254 249.024,-245.421 225.691,-245.421Z" style="fill:rgb(69,86,90);fill-rule:nonzero;"/>
    </g>
    <g transform="matrix(0.704665,0,0,0.852357,1.547873,17.806856)">
        <path d="M14.416,10.052L14.361,10.12L14.081,10.12C13.575,10.12 13.09,9.832 12.625,9.255C12.422,9.002 12.269,8.727 12.167,8.428C12.064,8.13 12.013,7.806 12.013,7.458C12.013,6.965 12.174,6.518 12.495,6.114C12.837,5.684 13.248,5.468 13.729,5.468C13.802,5.468 13.915,5.483 14.069,5.513C14.223,5.542 14.317,5.574 14.351,5.608C14.351,5.634 14.352,5.679 14.354,5.743C14.357,5.808 14.358,5.861 14.358,5.902L14.361,6.022L14.3,6.08C14.145,6.03 14.008,6.005 13.89,6.005C13.534,6.005 13.226,6.146 12.965,6.429C12.704,6.711 12.574,7.033 12.574,7.393C12.574,7.696 12.663,8.046 12.842,8.444C13.021,8.841 13.224,9.135 13.452,9.324C13.552,9.41 13.683,9.473 13.845,9.512L13.845,7.061L13.893,6.972L14.368,6.972L14.416,7.027L14.416,10.052Z" style="fill:white;fill-rule:nonzero;"/>
        <path d="M17.424,9.843L17.424,9.881C17.424,9.968 17.42,10.021 17.413,10.042C17.4,10.094 17.37,10.124 17.325,10.13L15.298,10.13L15.229,10.096C15.225,10.083 15.22,10.064 15.214,10.04C15.208,10.016 15.204,9.996 15.202,9.98L15.205,5.588C15.205,5.533 15.211,5.501 15.223,5.492C15.241,5.483 15.283,5.479 15.349,5.479L15.711,5.479C15.75,5.479 15.775,5.487 15.786,5.504C15.798,5.521 15.804,5.554 15.804,5.602L15.804,9.532C15.799,9.539 15.796,9.545 15.793,9.549C15.805,9.558 15.812,9.566 15.814,9.573C15.816,9.58 15.82,9.586 15.826,9.59C15.831,9.595 15.835,9.597 15.838,9.597L17.325,9.597C17.391,9.597 17.424,9.679 17.424,9.843Z" style="fill:white;fill-rule:nonzero;"/>
        <path d="M19.71,6.747L18.521,6.747L18.514,6.764L18.524,9.638L19.611,9.638C19.636,9.686 19.649,9.768 19.649,9.884C19.649,9.996 19.628,10.076 19.587,10.124L18.022,10.124C17.992,10.124 17.977,10.104 17.977,10.065L17.977,5.513C17.998,5.492 18.024,5.482 18.056,5.482L19.204,5.482L19.204,5.933L18.524,5.933L18.524,6.265L19.693,6.258L19.71,6.265L19.71,6.747Z" style="fill:white;fill-rule:nonzero;"/>
        <path d="M23.176,10.011C23.181,10.034 23.183,10.05 23.183,10.059C23.183,10.104 23.156,10.127 23.101,10.127L22.869,10.13L22.646,10.137L22.585,10.086L22.585,7.676C22.589,7.642 22.498,7.542 22.311,7.376L21.276,6.473L21.026,6.268C20.987,6.257 20.968,6.274 20.968,6.319L20.965,10.001C20.965,10.085 20.935,10.127 20.876,10.127L20.452,10.127C20.411,10.127 20.387,10.12 20.38,10.107L20.38,10.031L20.387,7.827L20.397,5.622C20.397,5.522 20.418,5.472 20.459,5.472L20.633,5.475L20.814,5.479C20.89,5.479 20.942,5.49 20.972,5.513C20.99,5.524 21.031,5.558 21.095,5.615C21.179,5.688 21.272,5.77 21.375,5.861C21.411,5.893 21.558,6.025 21.816,6.258C22.285,6.677 22.53,6.887 22.551,6.887C22.569,6.889 22.581,6.874 22.588,6.842L22.585,6.791L22.585,5.598C22.585,5.539 22.589,5.504 22.598,5.494C22.608,5.484 22.64,5.479 22.694,5.479L22.848,5.479L23.002,5.482C23.104,5.482 23.158,5.499 23.162,5.533L23.176,10.011Z" style="fill:white;fill-rule:nonzero;"/>
        <path d="M26.803,10.011C26.807,10.034 26.809,10.05 26.809,10.059C26.809,10.104 26.782,10.127 26.727,10.127L26.495,10.13L26.273,10.137L26.211,10.086L26.211,7.676C26.216,7.642 26.125,7.542 25.938,7.376L24.902,6.473L24.653,6.268C24.614,6.257 24.595,6.274 24.595,6.319L24.591,10.001C24.591,10.085 24.562,10.127 24.502,10.127L24.078,10.127C24.037,10.127 24.014,10.12 24.007,10.107L24.007,10.031L24.014,7.827L24.024,5.622C24.024,5.522 24.044,5.472 24.085,5.472L24.26,5.475L24.441,5.479C24.516,5.479 24.568,5.49 24.598,5.513C24.616,5.524 24.657,5.558 24.721,5.615C24.805,5.688 24.899,5.77 25.001,5.861C25.038,5.893 25.185,6.025 25.442,6.258C25.912,6.677 26.157,6.887 26.177,6.887C26.195,6.889 26.208,6.874 26.215,6.842L26.211,6.791L26.211,5.598C26.211,5.539 26.216,5.504 26.225,5.494C26.234,5.484 26.266,5.479 26.321,5.479L26.474,5.479L26.628,5.482C26.731,5.482 26.784,5.499 26.789,5.533L26.803,10.011Z" style="fill:white;fill-rule:nonzero;"/>
        <path d="M30.504,10.052L30.46,10.12L29.964,10.124L29.892,10.055L29.39,7.738L28.563,7.738L28.019,10.12L27.978,10.137L27.537,10.137L27.49,10.055L28.611,5.472L29.236,5.472L29.298,5.533L30.504,10.052ZM29.178,6.812L29.011,6.039L28.901,6.039L28.72,6.812L29.178,6.812ZM29.298,7.358L29.27,7.177L28.679,7.177L28.641,7.358L29.298,7.358Z" style="fill:white;fill-rule:nonzero;"/>
        <path d="M34.606,9.942C34.606,10.07 34.526,10.134 34.367,10.134C34.13,10.134 33.787,10.055 33.339,9.896C32.892,9.738 32.554,9.659 32.326,9.659C32.253,9.659 32.145,9.682 32.001,9.729C31.858,9.776 31.75,9.799 31.677,9.799C31.636,9.799 31.615,9.782 31.615,9.748L31.636,9.577L31.625,9.491L31.619,9.406C31.619,9.271 31.678,9.204 31.796,9.204L31.878,9.218L31.964,9.228C32.048,9.228 32.135,9.192 32.223,9.119C32.144,9.098 32.033,9.056 31.892,8.992C31.669,8.858 31.492,8.658 31.362,8.394C31.301,8.271 31.255,8.146 31.225,8.02C31.196,7.893 31.181,7.757 31.181,7.611C31.181,7.037 31.313,6.552 31.577,6.155C31.883,5.695 32.308,5.465 32.852,5.465C33.265,5.465 33.59,5.646 33.827,6.008C34.029,6.321 34.131,6.697 34.131,7.136C34.131,8.039 33.873,8.662 33.358,9.006L32.921,9.211C32.934,9.236 32.971,9.255 33.03,9.269L33.666,9.498C33.755,9.53 33.839,9.554 33.919,9.57C33.999,9.586 34.081,9.594 34.165,9.594C34.217,9.594 34.266,9.592 34.31,9.587C34.355,9.582 34.406,9.573 34.466,9.56C34.541,9.566 34.578,9.622 34.578,9.727L34.592,9.836L34.606,9.942ZM33.625,7.3C33.625,6.428 33.33,5.991 32.74,5.991C32.421,5.991 32.169,6.162 31.984,6.504C31.834,6.784 31.759,7.1 31.759,7.451C31.759,7.761 31.828,8.031 31.967,8.261C32.133,8.537 32.359,8.674 32.644,8.674C32.958,8.674 33.208,8.517 33.392,8.203C33.547,7.938 33.625,7.638 33.625,7.3Z" style="fill:white;fill-rule:nonzero;"/>
        <path d="M38.034,8.685C38.034,9.09 37.927,9.431 37.713,9.707C37.48,10.007 37.16,10.158 36.752,10.158C36.265,10.158 35.899,10.012 35.655,9.72C35.436,9.463 35.327,9.118 35.327,8.685L35.32,5.899C35.32,5.667 35.334,5.537 35.361,5.509C35.389,5.482 35.523,5.468 35.765,5.468C35.847,5.468 35.888,5.508 35.888,5.588L35.888,7.512C35.888,7.551 35.897,7.759 35.915,8.138C35.926,8.375 35.932,8.557 35.932,8.685C35.932,8.828 35.944,8.952 35.968,9.055C35.992,9.159 36.027,9.247 36.072,9.32C36.186,9.512 36.39,9.607 36.684,9.607C37.222,9.607 37.491,9.3 37.491,8.685L37.467,5.595C37.467,5.513 37.501,5.472 37.569,5.472L37.849,5.468C37.966,5.482 38.024,5.53 38.024,5.612L38.034,7.129L38.034,8.685Z" style="fill:white;fill-rule:nonzero;"/>
        <path d="M41.51,7.03C41.51,7.413 41.369,7.74 41.086,8.011C40.804,8.282 40.47,8.418 40.085,8.418C39.736,8.418 39.428,8.281 39.16,8.006C38.893,7.732 38.759,7.417 38.759,7.061C38.759,6.626 38.873,6.262 39.1,5.971C39.349,5.654 39.685,5.496 40.109,5.496L40.228,5.496C40.611,5.496 40.927,5.659 41.175,5.984C41.398,6.283 41.51,6.632 41.51,7.03ZM40.488,8.968C40.488,9.012 40.488,9.049 40.486,9.081C40.485,9.113 40.481,9.143 40.474,9.17C40.454,9.238 40.407,9.273 40.334,9.273L40.02,9.273C39.94,9.273 39.89,9.237 39.869,9.167C39.863,9.141 39.859,9.07 39.859,8.951C39.859,8.744 39.913,8.645 40.02,8.654L40.148,8.654C40.192,8.654 40.239,8.653 40.286,8.65L40.334,8.65C40.437,8.65 40.488,8.756 40.488,8.968ZM40.498,9.809C40.498,9.852 40.498,9.89 40.497,9.922C40.496,9.954 40.492,9.983 40.485,10.011C40.464,10.079 40.416,10.113 40.341,10.113L40.027,10.113C39.949,10.113 39.899,10.078 39.876,10.007L39.869,9.792C39.869,9.585 39.922,9.486 40.027,9.495L40.155,9.495C40.199,9.495 40.247,9.494 40.297,9.491L40.341,9.491C40.446,9.491 40.498,9.597 40.498,9.809ZM40.973,6.883C40.973,6.635 40.905,6.426 40.768,6.258C40.62,6.078 40.423,5.988 40.177,5.988C39.895,5.988 39.677,6.086 39.524,6.282C39.388,6.46 39.319,6.695 39.319,6.989C39.319,7.215 39.397,7.415 39.553,7.591C39.709,7.766 39.899,7.854 40.122,7.854C40.375,7.854 40.584,7.754 40.748,7.553C40.898,7.369 40.973,7.145 40.973,6.883Z" style="fill:white;fill-rule:nonzero;"/>
        <path d="M42.758,10.12L42.224,10.12C42.188,10.12 42.169,10.111 42.166,10.093L42.166,5.564C42.166,5.518 42.276,5.496 42.494,5.496C42.645,5.496 42.733,5.518 42.758,5.564L42.758,10.12Z" style="fill:white;fill-rule:nonzero;"/>
        <path d="M45.813,10.076L45.759,10.124C45.615,10.137 45.51,10.144 45.444,10.144C44.87,10.144 44.391,9.895 44.009,9.396C43.658,8.935 43.482,8.409 43.482,7.816C43.482,7.233 43.635,6.714 43.94,6.258C44.287,5.738 44.736,5.479 45.287,5.479C45.401,5.479 45.548,5.497 45.728,5.533L45.759,5.554L45.759,6.019L45.728,6.049L45.492,6.039L45.246,6.025C44.845,6.025 44.54,6.212 44.33,6.586C44.161,6.891 44.077,7.262 44.077,7.697C44.077,8.207 44.203,8.644 44.456,9.006C44.739,9.405 45.119,9.604 45.598,9.604L45.653,9.604C45.662,9.604 45.677,9.603 45.697,9.601C45.718,9.598 45.734,9.597 45.745,9.597C45.756,9.597 45.779,9.611 45.813,9.638L45.813,10.076Z" style="fill:white;fill-rule:nonzero;"/>
        <path d="M48.896,10.127L48.38,10.127L48.356,10.096L48.356,7.311L47.061,7.311C47.04,7.311 47.03,7.323 47.03,7.348L47.01,10.127L46.47,10.127L46.442,10.083L46.442,5.506L46.47,5.485L47.01,5.485L47.044,5.506L47.044,6.118L47.064,6.138L48.336,6.138L48.356,6.104L48.356,5.506L48.397,5.485L48.883,5.485L48.91,5.506L48.896,10.127ZM48.356,6.832L48.356,6.518L47.044,6.518L47.02,6.545L47.02,6.805L47.044,6.832L48.356,6.832Z" style="fill:white;fill-rule:nonzero;"/>
    </g>
    <g transform="matrix(0.015789,0,0,0.0125,23.105263,39)">
        <path d="M642.94,-160C610.98,-160 583.833,-171.187 561.5,-193.56C539.167,-215.933 528,-243.1 528,-275.06C528,-307.02 538.89,-334.167 560.67,-356.5C582.443,-378.833 608.887,-390 640,-390C650.647,-390 660.807,-389 670.48,-387C680.16,-385 689.333,-381.667 698,-377L698,-720L880,-720L880,-649L758,-649L758,-274C758,-242.333 746.813,-215.417 724.44,-193.25C702.067,-171.083 674.9,-160 642.94,-160ZM246.667,-450L246.667,-510L536.691,-510L536.691,-450L246.667,-450ZM246.667,-600L246.667,-660L536.691,-660L536.691,-600L246.667,-600Z" style="fill:rgb(69,86,90);fill-rule:nonzero;"/>
    </g>
</svg>
